<svg xmlns="http://www.w3.org/2000/svg" fill="none" viewBox="0 0 25 24"><path fill="#022639" fill-rule="evenodd" d="M11.6624 0.914384C12.1517 0.605362 12.7751 0.605361 13.2644 0.914384L21.7644 6.28281C22.1995 6.55763 22.4634 7.03637 22.4634 7.55104V16.4487C22.4634 16.9634 22.1995 17.4421 21.7644 17.7169L13.2644 23.0854C12.7751 23.3944 12.1517 23.3944 11.6624 23.0854L3.16239 17.7169C2.72724 17.4421 2.46338 16.9634 2.46338 16.4487V7.55104C2.46338 7.03637 2.72724 6.55764 3.16239 6.28281L11.6624 0.914384ZM13.3843 15.0103C14.0116 14.8236 14.5649 14.4457 14.967 13.9292L17.7134 15.4999C16.963 16.6183 15.8731 17.466 14.6043 17.918C13.3356 18.3699 11.9551 18.4022 10.6667 18.01C9.37815 17.6178 8.24981 16.8219 7.448 15.7397C6.6462 14.6576 6.21338 13.3464 6.21338 11.9995C6.21338 10.6527 6.6462 9.34147 7.448 8.25929C8.24981 7.17712 9.37815 6.38125 10.6667 5.98906C11.9551 5.59687 13.3356 5.62912 14.6043 6.08106C15.8731 6.533 16.963 7.3807 17.7134 8.49915L14.967 10.0698C14.5649 9.55338 14.0116 9.1754 13.3843 8.98869C12.757 8.80198 12.087 8.81587 11.468 9.02841C10.849 9.24096 10.3118 9.64154 9.9315 10.1742C9.5512 10.7069 9.34677 11.345 9.34677 11.9995C9.34677 12.654 9.5512 13.2922 9.9315 13.8248C10.3118 14.3575 10.849 14.7581 11.468 14.9706C12.087 15.1832 12.757 15.1971 13.3843 15.0103Z" clip-rule="evenodd"/></svg>